<svg id="Capa_1" enable-background="new 0 0 512 512" height="512" viewBox="0 0 512 512" width="512" xmlns="http://www.w3.org/2000/svg"><g><path d="m322.065 51.709h16.516v107.355h-16.516z" fill="#faf5dc"/><path d="m346.839 51.709c0 9.122-7.395 16.516-16.516 16.516-9.122 0-16.516-7.395-16.516-16.516 0-6.179 7.578-19.143 12.468-26.865 1.883-2.973 6.214-2.973 8.096 0 4.89 7.722 12.468 20.686 12.468 26.865z" fill="#ffe07d"/><path d="m247.742 51.709h16.516v107.355h-16.516z" fill="#faf5dc"/><path d="m272.516 51.709c0 9.122-7.395 16.516-16.516 16.516s-16.516-7.395-16.516-16.516c0-6.179 7.578-19.143 12.468-26.865 1.883-2.973 6.214-2.973 8.096 0 4.89 7.722 12.468 20.686 12.468 26.865z" fill="#ffe07d"/><path d="m173.419 51.709h16.516v107.355h-16.516z" fill="#faf5dc"/><path d="m412.903 167.322h-262.054c-9.121 0-16.516 7.394-16.516 16.516v107.355l295.086-33.032v-74.323c0-9.122-7.394-16.516-16.516-16.516z" fill="#faf5dc"/><path d="m148.645 225.128v-57.806h-49.548c-9.122 0-16.516 7.395-16.516 16.516v107.355h346.839v-33.033h-247.743c-18.243 0-33.032-14.789-33.032-33.032z" fill="#f5ebcd"/><path d="m462.421 340.741h-314.935c-9.121 0-16.516 7.394-16.516 16.516l.03 115.613h328l19.968-33.032-.03-82.581c0-9.122-7.395-16.516-16.517-16.516z" fill="#faf5dc"/><path d="m148.645 406.806v-66.065h-99.097c-9.122 0-16.516 7.395-16.516 16.516v115.613h445.935v-33.032h-297.29c-18.243 0-33.032-14.789-33.032-33.032z" fill="#f5ebcd"/><path d="m470.71 307.709h-332.21l10.146 49.68c23.801 1.556 25.188 16.385 51.617 16.385 27.893 0 27.893-16.516 55.785-16.516 27.857 0 27.857 16.516 55.715 16.516 27.864 0 27.864-16.516 55.729-16.516 27.849 0 27.849 16.516 55.698 16.516 27.874 0 27.874-16.516 55.747-16.516v-41.291z" fill="#ffe07d"/><path d="m144.478 357.257c1.477 0 2.838.044 4.167.132v-49.68h-107.355l-8.258 8.258v41.29c27.849 0 27.849 16.516 55.699 16.516 27.873 0 27.873-16.516 55.747-16.516z" fill="#ffd064"/><path d="m412.903 142.547h-264.258l-12.145 25.953 12.144 31.336c20.934-2.8 23.673-15.998 49.504-15.998 28.88 0 28.88 16.516 57.76 16.516 28.905 0 28.905-16.516 57.811-16.516 28.925 0 28.925 16.516 57.85 16.516s28.925-16.516 57.85-16.516v-24.774c0-9.122-7.394-16.517-16.516-16.517z" fill="#ff9a9f"/><path d="m462.439 274.677h-313.794l-9.895 18.323 9.894 23.098c23.804 1.555 25.19 16.385 51.62 16.385 27.893 0 27.893-16.516 55.785-16.516 27.857 0 27.857 16.516 55.715 16.516 27.864 0 27.864-16.516 55.729-16.516 27.849 0 27.849 16.516 55.698 16.516 27.874 0 27.874-16.516 55.747-16.516l.018-24.762c.006-9.127-7.39-16.528-16.517-16.528z" fill="#ff9a9f"/><path d="m198.194 51.709c0 9.122-7.395 16.516-16.516 16.516-9.122 0-16.516-7.395-16.516-16.516 0-6.179 7.578-19.143 12.468-26.865 1.883-2.973 6.214-2.973 8.096 0 4.889 7.722 12.468 20.686 12.468 26.865z" fill="#ffe07d"/><path d="m503.742 456.354h-355.097c-4.561 0-8.258 3.697-8.258 8.258v8.258c0 4.56 3.697 8.258 8.258 8.258h355.097c4.561 0 8.258-3.698 8.258-8.258v-8.258c0-4.561-3.697-8.258-8.258-8.258z" fill="#e2a975"/><path d="m156.903 472.87c-4.561 0-8.258-3.698-8.258-8.258v-8.258h-140.387c-4.561 0-8.258 3.697-8.258 8.258v16.516c0 4.56 3.697 8.258 8.258 8.258h495.484c4.561 0 8.258-3.698 8.258-8.258v-8.258z" fill="#d19a6e"/><g fill="#ff8086"><path d="m144.478 315.967c1.477 0 2.838.044 4.167.131v-41.422h-99.097c-9.121 0-16.516 7.394-16.516 16.516v24.774c27.849 0 27.849 16.516 55.699 16.516 27.873.001 27.873-16.515 55.747-16.515z"/><path d="m148.645 199.839v-57.292h-49.548c-9.121 0-16.516 7.394-16.516 16.516v24.774c28.888 0 28.888 16.516 57.777 16.516 3.087.001 5.789-.177 8.287-.514z"/></g></g></svg>