<?xml version="1.0" encoding="iso-8859-1"?>
<!-- Generator: Adobe Illustrator 19.0.0, SVG Export Plug-In . SVG Version: 6.00 Build 0)  -->
<svg version="1.1" id="Layer_1" xmlns="http://www.w3.org/2000/svg" xmlns:xlink="http://www.w3.org/1999/xlink" x="0px" y="0px"
	 viewBox="0 0 512 512" style="enable-background:new 0 0 512 512;" xml:space="preserve">
<polygon style="fill:#174461;" points="59.59,480.512 0,512 31.488,452.41 62.58,449.42 "/>
<polygon style="fill:#FFEBB4;" points="76.4,367.431 31.488,452.41 59.59,480.512 144.569,435.6 "/>
<path style="fill:#FF755C;" d="M497.901,14.099c18.799,18.799,18.799,49.371,0,68.169l-34.525,34.525l-59.449-8.323l-8.721-59.846
	l34.525-34.525C448.53-4.7,479.102-4.7,497.901,14.099z"/>
<path style="fill:#FFB14E;" d="M420.778,159.403L144.569,435.6l-55.914-12.255L386.687,91.229
	C386.687,91.229,420.766,159.391,420.778,159.403z"/>
<polygon style="fill:#FFCE47;" points="403.729,108.271 88.655,423.345 76.4,367.431 352.609,91.234 "/>
<path style="fill:#174461;" d="M395.207,48.624l-42.598,42.61l68.157,68.157c0.012,0.012,42.61-42.598,42.61-42.598L395.207,48.624z
	"/>
<g>
</g>
<g>
</g>
<g>
</g>
<g>
</g>
<g>
</g>
<g>
</g>
<g>
</g>
<g>
</g>
<g>
</g>
<g>
</g>
<g>
</g>
<g>
</g>
<g>
</g>
<g>
</g>
<g>
</g>
</svg>
