<svg id="Layer_1" height="512" viewBox="0 0 512 512" width="512" xmlns="http://www.w3.org/2000/svg" xmlns:xlink="http://www.w3.org/1999/xlink" data-name="Layer 1"><linearGradient id="linear-gradient" gradientUnits="userSpaceOnUse" x1="256.024" x2="256.024" y1="481.121" y2="113.557"><stop offset=".322" stop-color="#a163f5"/><stop offset=".466" stop-color="#b074ee"/><stop offset=".752" stop-color="#d8a1dd"/><stop offset=".898" stop-color="#efbad3"/></linearGradient><linearGradient id="linear-gradient-2" x1="352.059" x2="352.059" xlink:href="#linear-gradient" y1="481.121" y2="113.557"/><linearGradient id="linear-gradient-3" x1="298.316" x2="298.316" xlink:href="#linear-gradient" y1="481.121" y2="113.557"/><path d="m424.893 37.984-158.681 130.985a653.848 653.848 0 0 0 -118.35 127.78l-20.715 29.421a21.232 21.232 0 0 0 -24.5 34.012l.191.191-60.973 25.737a6 6 0 0 0 -3.638 4.947l-8.2 84.363a6 6 0 0 0 5.973 6.58c.192 0 .387-.009.58-.028l84.363-8.2a6 6 0 0 0 5-3.763l24.549-61.99 1.328 1.328a21.233 21.233 0 0 0 34.017-24.5l29.416-20.712a653.777 653.777 0 0 0 127.78-118.349l130.983-158.679a34.894 34.894 0 0 0 -49.123-49.123zm-308.758 424.2-64.06 6.225 27.46-27.46a15.782 15.782 0 0 0 6.045 1.207 15.651 15.651 0 0 0 15.671-15.693 15.539 15.539 0 0 0 -15.715-15.463h-.03a15.514 15.514 0 0 0 -14.465 21.5l-27.451 27.44 6.234-64.158 62.176-26.248 29.241 29.241zm-34.299-35.684a3.459 3.459 0 0 1 3.671-3.5h.007a3.574 3.574 0 0 1 2.665 6.122 3.713 3.713 0 0 1 -5.243-.041 3.6 3.6 0 0 1 -1.1-2.581zm91.535-25.634a9.242 9.242 0 0 1 -13.068 0l-49.166-49.166a9.241 9.241 0 0 1 13.069-13.069l49.166 49.166a9.242 9.242 0 0 1 0 13.069zm34.972-46.538-30.2 21.267-41.732-41.731 21.267-30.2q14.959-21.249 31.588-41.193c20.573 13.564 46.707 39.7 60.272 60.273q-19.938 16.596-41.195 31.581zm50.4-39.393c-14.436-21.414-40.263-47.242-61.677-61.677q18.394-21.262 38.611-40.848c21.938 14.445 49.467 41.974 63.915 63.914q-19.574 20.185-40.847 38.608zm206.019-235.466-130.985 158.679q-12.412 15.039-25.72 29.268c-15.091-21.939-41.536-48.383-63.474-63.472q14.238-13.285 29.268-25.721l158.68-130.984a22.894 22.894 0 0 1 32.231 32.23z" fill="url(#linear-gradient)"/><path d="m385.267 100.425-74.055 61.13a6 6 0 1 0 7.639 9.254l74.054-61.13a6 6 0 1 0 -7.638-9.254z" fill="url(#linear-gradient-2)"/><path d="m296.866 173.4-4.739 3.912a6 6 0 1 0 7.639 9.254l4.739-3.911a6 6 0 0 0 -7.639-9.255z" fill="url(#linear-gradient-3)"/></svg>