<svg enable-background="new 0 0 24 24" height="512" viewBox="0 0 24 24" width="512" xmlns="http://www.w3.org/2000/svg"><path d="m17 8.75c0-.965-.785-1.75-1.75-1.75h-13.5c-.965 0-1.75.785-1.75 1.75v13.5c0 .965.785 1.75 1.75 1.75h13.5c.965 0 1.75-.785 1.75-1.75z"/><path d="m23 5c-.553 0-1-.448-1-1v-1c0-.551-.448-1-1-1h-1c-.553 0-1-.448-1-1s.447-1 1-1h1c1.654 0 3 1.346 3 3v1c0 .552-.447 1-1 1z"/><path d="m5 5c-.553 0-1-.448-1-1v-1c0-1.654 1.346-3 3-3h1c.553 0 1 .448 1 1s-.447 1-1 1h-1c-.552 0-1 .449-1 1v1c0 .552-.447 1-1 1z"/><path d="m16 2h-4c-.553 0-1-.448-1-1s.447-1 1-1h4c.553 0 1 .448 1 1s-.447 1-1 1z"/><path d="m21 20h-1c-.553 0-1-.448-1-1s.447-1 1-1h1c.552 0 1-.449 1-1v-1c0-.552.447-1 1-1s1 .448 1 1v1c0 1.654-1.346 3-3 3z"/><path d="m23 13c-.553 0-1-.448-1-1v-4c0-.552.447-1 1-1s1 .448 1 1v4c0 .552-.447 1-1 1z"/></svg>