<svg id="Capa_1" enable-background="new 0 0 512 512" height="512" viewBox="0 0 512 512" width="512" xmlns="http://www.w3.org/2000/svg" xmlns:xlink="http://www.w3.org/1999/xlink"><linearGradient id="SVGID_1_" gradientUnits="userSpaceOnUse" x1="300.999" x2="300.999" y1="422" y2="0"><stop offset="0" stop-color="#ffbef9"/><stop offset="1" stop-color="#fff1ff"/></linearGradient><linearGradient id="SVGID_2_" gradientUnits="userSpaceOnUse" x1="187.5" x2="187.5" y1="512" y2="136.996"><stop offset="0" stop-color="#a93aff"/><stop offset="1" stop-color="#ff81ff"/></linearGradient><g><g><g><path d="m314.999 0h-30c-8.291 0-15 6.709-15 15s6.709 15 15 15h30c8.291 0 15-6.709 15-15s-6.709-15-15-15zm-90.001 0h-30c-8.291 0-15 6.709-15 15s6.709 15 15 15h30c8.291 0 15-6.709 15-15s-6.708-15-15-15zm180.001 0h-30c-8.291 0-15 6.709-15 15s6.709 15 15 15h30c8.291 0 15-6.709 15-15s-6.709-15-15-15zm92.001 0h-30c-8.291 0-15 6.709-15 15s6.709 15 15 15h15v15c0 8.291 6.709 15 15 15s15-6.709 15-15v-30c0-8.291-6.709-15-15-15zm-362.002 0h-30c-8.291 0-15 6.709-15 15v30c0 8.291 6.709 15 15 15s15-6.709 15-15v-15h15c8.291 0 15-6.709 15-15s-6.708-15-15-15zm180.001 392h-53.203c-8.291 0-15 6.709-15 15s6.709 15 15 15h53.203c8.291 0 15-6.709 15-15s-6.709-15-15-15zm90 0h-30c-8.291 0-15 6.709-15 15s6.709 15 15 15h30c8.291 0 15-6.709 15-15s-6.709-15-15-15zm92.001-120c-8.291 0-15 6.709-15 15v30c0 8.291 6.709 15 15 15s15-6.709 15-15v-30c0-8.291-6.709-15-15-15zm0-90c-8.291 0-15 6.709-15 15v30c0 8.291 6.709 15 15 15s15-6.709 15-15v-30c0-8.291-6.709-15-15-15zm0-90c-8.291 0-15 6.709-15 15v30c0 8.291 6.709 15 15 15s15-6.709 15-15v-30c0-8.291-6.709-15-15-15zm-392.002 90c-8.291 0-15 6.709-15 15v53.203c0 8.291 6.709 15 15 15s15-6.709 15-15v-53.203c0-8.291-6.708-15-15-15zm0-90c-8.291 0-15 6.709-15 15v30c0 8.291 6.709 15 15 15s15-6.709 15-15v-30c0-8.291-6.708-15-15-15zm392.002 270c-8.291 0-15 6.709-15 15v15h-15c-8.291 0-15 6.709-15 15s6.709 15 15 15h30c8.291 0 15-6.709 15-15v-30c0-8.291-6.709-15-15-15z" fill="url(#SVGID_1_)"/></g></g><g><g><path d="m370.604 141.394c-4.189-4.204-10.459-5.522-15.996-3.398l-345 132.861c-6.108 2.358-9.976 8.394-9.58 14.927.396 6.519 4.98 12.041 11.338 13.623l160.972 40.254 40.254 160.972c1.582 6.357 7.104 10.942 13.623 11.338.308.015.615.029.923.029 6.182 0 11.763-3.794 14.004-9.609l132.861-345c2.123-5.538.79-11.807-3.399-15.997z" fill="url(#SVGID_2_)"/></g></g></g></svg>